Coordinates
version=1
nRows=11
nColumns=40
inDegrees=yes

Units are S.I. units (second, meters, Newtons, ...)
Angles are in degrees.

endheader
time	pelvis_tilt	pelvis_list	pelvis_rotation	pelvis_tx	pelvis_ty	pelvis_tz	hip_flexion_r	hip_adduction_r	hip_rotation_r	knee_angle_r	knee_angle_r_beta	ankle_angle_r	subtalar_angle_r	mtp_angle_r	hip_flexion_l	hip_adduction_l	hip_rotation_l	knee_angle_l	knee_angle_l_beta	ankle_angle_l	subtalar_angle_l	mtp_angle_l	lumbar_extension	lumbar_bending	lumbar_rotation	arm_flex_r	arm_add_r	arm_rot_r	elbow_flex_r	pro_sup_r	wrist_flex_r	wrist_dev_r	arm_flex_l	arm_add_l	arm_rot_l	elbow_flex_l	pro_sup_l	wrist_flex_l	wrist_dev_l
      1.05000000	      0.48501808	     -0.74879501	      3.54863728	     -0.17976074	      0.87519400	     -1.03243302	     29.69630078	     -2.01590833	    -21.22125585	    -19.61093855	     -0.34227545	     -1.04874459	     -0.08689605	      3.71779098	    -12.95138575	      0.26427081	      7.22156818	    -18.03245889	     -0.31472578	      9.65677240	    -12.14282652	     -6.35885901	     -8.30360390	      3.38157324	     -9.29123591	     -4.56746055	     -9.88889731	     15.50029201	     13.04048946	     89.95437384	      0.00000000	      0.00000000	     20.56002071	     15.03911934	    -15.82984468	     35.34228729	     89.95437384	      0.00000000	      0.00000000
      1.06000000	      0.41458156	     -0.98515594	      4.23675913	     -0.16509025	      0.87315792	     -1.03268566	     30.02552053	     -2.01273592	    -22.04878692	    -19.33448493	     -0.33745042	     -0.82965998	      0.23561617	      3.18494137	    -13.40501760	      0.88774448	      6.74760219	    -18.80683240	     -0.32824115	      9.32549314	    -12.43635832	     -6.59467910	     -8.02411021	      3.71661990	     -9.59748773	     -5.22627828	     -9.79780688	     15.27472221	     12.54467471	     89.95437384	      0.00000000	      0.00000000	     21.04955108	     15.10186775	    -15.36196885	     37.21509849	     89.95437384	      0.00000000	      0.00000000
      1.07000000	      0.34296026	     -1.22702493	      4.88933048	     -0.14981287	      0.87111354	     -1.03315686	     30.30191936	     -1.93012665	    -22.00789674	    -19.59366972	     -0.34197405	     -0.39392723	      0.29599259	      2.74637031	    -13.81053668	      1.49580693	      6.21176706	    -19.68511078	     -0.34357000	      8.71019307	    -12.58519067	     -6.72654607	     -7.63254080	      4.09197892	     -9.83251048	     -5.97124745	     -9.75652388	     15.28968399	     11.90968578	     89.95437384	      0.00000000	      0.00000000	     21.30706790	     15.05521117	    -14.82196236	     39.13232322	     89.95437384	      0.00000000	      0.00000000
      1.08000000	      0.29039627	     -1.34983034	      5.28616615	     -0.13437354	      0.86917347	     -1.03341482	     30.62704315	     -1.81821217	    -21.16115591	    -20.45890163	     -0.35707519	     -0.48704482	      0.28742474	      2.57786374	    -14.18507944	      1.87053168	      5.54960265	    -20.72352844	     -0.36169380	      8.04447738	    -12.17859584	     -6.59551705	     -7.29240634	      4.31469679	     -9.58408012	     -6.91434748	     -9.81848442	     15.23967693	     11.74803112	     89.95437384	      0.00000000	      0.00000000	     21.76152956	     14.77290823	    -14.45969684	     40.69266764	     89.95437384	      0.00000000	      0.00000000
      1.09000000	      0.35954518	     -1.58870471	      5.74206889	     -0.11838441	      0.86747031	     -1.03362735	     30.77124443	     -1.55154901	    -20.02175593	    -21.81504624	     -0.38074438	     -0.69193122	      0.10184812	      2.41127790	    -14.54140530	      2.40312297	      4.83342857	    -22.02754799	     -0.38445324	      7.15800285	    -11.69296643	     -6.42543047	     -7.00766337	      4.67213014	     -9.48730951	     -7.77022516	     -9.82152812	     15.19208761	     11.48638695	     89.95437384	      0.00000000	      0.00000000	     21.87884278	     14.59319826	    -13.99437721	     42.53684937	     89.95437384	      0.00000000	      0.00000000
      1.10000000	      0.42708529	     -2.32178059	      6.19198062	     -0.10185647	      0.86574428	     -1.03281528	     30.77749669	     -0.35481314	    -18.54160218	    -22.97074341	     -0.40091510	     -4.13533538	     -5.18770869	      2.44398351	    -14.39417065	      4.04073094	      6.03610545	    -24.10981404	     -0.42079564	      4.88093009	    -14.00308031	     -7.67797959	     -6.58985972	      5.47782173	     -9.87999395	     -7.98278863	     -9.57898888	     14.76261411	     10.29479154	     89.95437384	      0.00000000	      0.00000000	     21.06244325	     14.65954954	    -12.40048147	     45.29141247	     89.95437384	      0.00000000	      0.00000000
      1.11000000	      0.70477892	     -2.48840828	      6.47258203	     -0.08532489	      0.86461931	     -1.03286149	     30.77957414	     -0.10538202	    -17.14384433	    -25.27671389	     -0.44116188	     -5.65413576	     -5.01964360	      2.45962188	    -14.74926935	      4.43854306	      5.14946310	    -25.76530067	     -0.44968933	      3.65831061	    -12.97466773	     -7.35303285	     -6.51054460	      5.77117514	     -9.52913443	     -8.88551205	     -9.66421476	     14.69888157	     10.38340135	     89.95437384	      0.00000000	      0.00000000	     21.02831623	     14.35106257	    -11.98544761	     46.94029831	     89.95437384	      0.00000000	      0.00000000
      1.12000000	      0.88287183	     -2.57911733	      6.52150733	     -0.06885860	      0.86379838	     -1.03231816	     31.13988878	      0.03178558	    -16.19406337	    -27.89208797	     -0.48680877	     -6.49097535	     -7.12701739	      2.65897317	    -14.65865616	      5.00108888	      5.76256283	    -27.86085625	     -0.48626367	      0.97599873	    -12.58363272	     -7.14747275	     -6.36443635	      5.92444055	     -9.47906919	     -8.98879927	     -9.50163126	     14.88588369	      9.33223637	     89.95437384	      0.00000000	      0.00000000	     20.18847288	     14.36603471	    -10.82282708	     49.42975318	     89.95437384	      0.00000000	      0.00000000
      1.13000000	      0.59812891	     -3.16463145	      6.22873529	     -0.05283271	      0.86254268	     -1.03057770	     31.86287620	      1.30861267	    -14.11886892	    -29.88937460	     -0.52166800	     -6.75308823	    -11.93141952	      3.54389645	    -13.51413955	      6.30248683	      7.21644626	    -30.82786977	     -0.53804783	     -2.64905743	    -14.12948041	     -7.75548210	     -5.72327400	      6.48129717	     -8.96368197	     -9.31330739	     -9.49273159	     15.01877819	      8.86681780	     89.95437384	      0.00000000	      0.00000000	     19.40664748	     14.04984102	     -9.40730383	     51.43401104	     89.95437384	      0.00000000	      0.00000000
      1.14000000	      1.03940779	     -3.29825888	      6.15408697	     -0.03647802	      0.86284804	     -1.02992540	     31.58733000	      1.63698589	    -13.54074097	    -32.13741772	     -0.56090375	     -5.70757786	    -11.95219336	      3.43826961	    -13.22366223	      6.85099427	      7.61563661	    -33.43307731	     -0.58351728	     -5.69103830	    -12.33104174	     -7.17685103	     -5.94728239	      6.69560343	     -8.46250522	     -9.65920350	     -9.49735058	     15.10474735	      8.74999746	     89.95437384	      0.00000000	      0.00000000	     18.88661959	     13.88532137	     -8.95263923	     53.11217057	     89.95437384	      0.00000000	      0.00000000
      1.15000000	      1.29648795	     -3.57999813	      6.05835138	     -0.02040509	      0.86324871	     -1.02869898	     31.15716577	      2.34545162	    -12.82469720	    -33.78541825	     -0.58966679	     -4.26504177	    -11.98591890	      3.36040752	    -12.35617704	      7.69513024	      8.20306284	    -36.28920532	     -0.63336612	    -10.10419555	    -11.02065926	     -6.52067648	     -5.99555353	      6.98309425	     -8.08081324	     -9.64542801	     -9.40108239	     15.21083604	      8.23731860	     89.95437384	      0.00000000	      0.00000000	     18.08608711	     13.77867056	     -8.20047360	     54.95867632	     89.95437384	      0.00000000	      0.00000000
